<svg xmlns="http://www.w3.org/2000/svg" version="1.1" preserveAspectRatio="none" width="500" height="500" viewBox="0 0 500 500"><rect width="100%" height="100%" fill="#121212" fill-opacity="1"/><svg xmlns="http://www.w3.org/2000/svg" xmlns:xlink="http://www.w3.org/1999/xlink" viewBox="363.1913 309.8795 361.3542 72" width="333" height="66.35041186735896" x="83.5px" y="216.8248px" preserveAspectRatio="none"><defs/><style>.a6izo4zJpcolor {fill:#F5F5F5;fill-opacity:1;}.companyName {fill:#F5F5F5;fill-opacity:1;}.icon3 {fill:#00DCFB;fill-opacity:1;}.icon3-str {stroke:#00DCFB;stroke-opacity:1;}.shapeStroke-str {stroke:#F5F5F5;stroke-opacity:1;}</style><g opacity="1" transform="rotate(0 363.1913 347.8795)">
<svg width="361.3542" height="6" x="363.1913" y="347.8795" version="1.1" preserveAspectRatio="none" viewBox="0 0 361.3542 6">
  <defs><rect x="0" y="0" width="361.3542" height="6" rx="4%" ry="4%" id="id-UPl23ini1689329831963"/></defs><use class="companyName shapeStroke-str" style="stroke-width:0;" xlink:href="#id-UPl23ini1689329831963"/>
</svg>
</g><g opacity="1" transform="rotate(0 363.1913 365.8795)">
<svg width="211.516" height="16" x="363.1913" y="365.8795" version="1.1" preserveAspectRatio="none" viewBox="1.92 -28.56 384.96 29.12">
  <g transform="matrix(1 0 0 1 0 0)" class="a6izo4zJpcolor"><path id="id-6izo4zJp15" d="M22.56-15.28L22.56 0L19.44 0L19.44-14.24Q19.44-15.64 18.80-16.54Q18.16-17.44 16.76-17.44L16.76-17.44Q15.44-17.44 14.62-16.46Q13.80-15.48 13.80-13.44L13.80-13.44L13.80 0L10.68 0L10.68-14.40Q10.68-15.72 9.96-16.58Q9.24-17.44 8.04-17.44L8.04-17.44Q6.60-17.44 5.82-16.40Q5.04-15.36 5.04-13.68L5.04-13.68L5.04 0L1.92 0L1.92-19.84L5.04-19.84L5.04-17.68L5.52-17.68Q6.04-19.08 7.04-19.74Q8.04-20.40 9.40-20.40L9.40-20.40Q10.84-20.40 11.78-19.64Q12.72-18.88 13.08-17.68L13.08-17.68L13.56-17.68Q14.92-20.40 17.88-20.40L17.88-20.40Q20.12-20.40 21.34-18.98Q22.56-17.56 22.56-15.28L22.56-15.28Z M48.28-10.16L48.28-9.68Q48.28-7.20 47.46-5.30Q46.64-3.40 45.28-2.10Q43.92-0.80 42.10-0.12Q40.28 0.56 38.32 0.56L38.32 0.56Q36.32 0.56 34.52-0.12Q32.72-0.80 31.36-2.10Q30-3.40 29.18-5.30Q28.36-7.20 28.36-9.68L28.36-9.68L28.36-10.16Q28.36-12.60 29.18-14.50Q30-16.40 31.38-17.72Q32.76-19.04 34.56-19.72Q36.36-20.40 38.32-20.40L38.32-20.40Q40.28-20.40 42.08-19.72Q43.88-19.04 45.26-17.72Q46.64-16.40 47.46-14.50Q48.28-12.60 48.28-10.16L48.28-10.16ZM38.32-2.40L38.32-2.40Q39.76-2.40 40.98-2.90Q42.20-3.40 43.12-4.36Q44.04-5.32 44.56-6.66Q45.08-8 45.08-9.68L45.08-9.68L45.08-10.16Q45.08-11.76 44.56-13.10Q44.04-14.44 43.12-15.40Q42.20-16.36 40.96-16.90Q39.72-17.44 38.32-17.44L38.32-17.44Q36.92-17.44 35.68-16.90Q34.44-16.36 33.52-15.40Q32.60-14.44 32.08-13.10Q31.56-11.76 31.56-10.16L31.56-10.16L31.56-9.68Q31.56-8 32.08-6.66Q32.60-5.32 33.52-4.36Q34.44-3.40 35.66-2.90Q36.88-2.40 38.32-2.40Z M58.76-10.32L58.76 0L55.64 0L55.64-19.84L58.76-19.84L58.76-16.48L59.24-16.48Q61.08-20.40 65.64-20.40L65.64-20.40Q69.08-20.40 71.12-18.26Q73.16-16.12 73.16-11.84L73.16-11.84L73.16 0L70.04 0L70.04-11.20Q70.04-14.32 68.64-15.88Q67.24-17.44 64.84-17.44L64.84-17.44Q62-17.44 60.38-15.50Q58.76-13.56 58.76-10.32L58.76-10.32Z M87.88-25.76L87.88-25.76Q87.88-26.92 88.70-27.74Q89.52-28.56 90.68-28.56L90.68-28.56Q91.84-28.56 92.66-27.74Q93.48-26.92 93.48-25.76L93.48-25.76Q93.48-24.60 92.66-23.78Q91.84-22.96 90.68-22.96L90.68-22.96Q89.52-22.96 88.70-23.78Q87.88-24.60 87.88-25.76ZM82.20 0L82.20-2.88L89.16-2.88L89.16-16.96L82.92-16.96L82.92-19.84L92.28-19.84L92.28-2.88L98.76-2.88L98.76 0L82.20 0Z M107.12-16.96L107.12-19.84L113.36-19.84L113.36-28L116.48-28L116.48-19.84L124.16-19.84L124.16-16.96L116.48-16.96L116.48-4.08Q116.48-2.88 117.56-2.88L117.56-2.88L123.20-2.88L123.20 0L116.44 0Q115.08 0 114.22-0.88Q113.36-1.76 113.36-3.12L113.36-3.12L113.36-16.96L107.12-16.96Z M152.60-10.16L152.60-9.68Q152.60-7.20 151.78-5.30Q150.96-3.40 149.60-2.10Q148.24-0.80 146.42-0.12Q144.60 0.56 142.64 0.56L142.64 0.56Q140.64 0.56 138.84-0.12Q137.04-0.80 135.68-2.10Q134.32-3.40 133.50-5.30Q132.68-7.20 132.68-9.68L132.68-9.68L132.68-10.16Q132.68-12.60 133.50-14.50Q134.32-16.40 135.70-17.72Q137.08-19.04 138.88-19.72Q140.68-20.40 142.64-20.40L142.64-20.40Q144.60-20.40 146.40-19.72Q148.20-19.04 149.58-17.72Q150.96-16.40 151.78-14.50Q152.60-12.60 152.60-10.16L152.60-10.16ZM142.64-2.40L142.64-2.40Q144.08-2.40 145.30-2.90Q146.52-3.40 147.44-4.36Q148.36-5.32 148.88-6.66Q149.40-8 149.40-9.68L149.40-9.68L149.40-10.16Q149.40-11.76 148.88-13.10Q148.36-14.44 147.44-15.40Q146.52-16.36 145.28-16.90Q144.04-17.44 142.64-17.44L142.64-17.44Q141.24-17.44 140.00-16.90Q138.76-16.36 137.84-15.40Q136.92-14.44 136.40-13.10Q135.88-11.76 135.88-10.16L135.88-10.16L135.88-9.68Q135.88-8 136.40-6.66Q136.92-5.32 137.84-4.36Q138.76-3.40 139.98-2.90Q141.20-2.40 142.64-2.40Z M158.84-16.96L158.84-19.84L166.04-19.84L166.04-17.20L166.52-17.20Q167.28-18.84 168.68-19.62Q170.08-20.40 171.88-20.40L171.88-20.40Q174.88-20.40 176.72-18.44Q178.56-16.48 178.68-12.72L178.68-12.72L175.40-12.24Q175.40-15 174.08-16.22Q172.76-17.44 170.84-17.44L170.84-17.44Q169.60-17.44 168.70-16.96Q167.80-16.48 167.20-15.64Q166.60-14.80 166.32-13.68Q166.04-12.56 166.04-11.28L166.04-11.28L166.04-2.88L171.08-2.88L171.08 0L158.36 0L158.36-2.88L162.92-2.88L162.92-16.96L158.84-16.96Z M232.40-19.84L229.28 0L223.52 0L221.12-18.40L220.64-18.40L218.24 0L212.48 0L209.36-19.84L212.56-19.84L215.20-1.44L215.68-1.44L218.00-19.84L223.76-19.84L226.08-1.44L226.56-1.44L229.20-19.84L232.40-19.84Z M256.48-8.96L240.48-8.96Q240.60-6 242.32-4.20Q244.04-2.40 247.12-2.40L247.12-2.40Q248.52-2.40 249.56-2.72Q250.60-3.04 251.34-3.60Q252.08-4.16 252.54-4.90Q253.00-5.64 253.28-6.48L253.28-6.48L256.24-5.68Q255.40-2.92 253.14-1.18Q250.88 0.56 247.04 0.56L247.04 0.56Q244.92 0.56 243.14-0.18Q241.36-0.92 240.08-2.28Q238.80-3.64 238.08-5.52Q237.36-7.40 237.36-9.68L237.36-9.68L237.36-10.64Q237.36-12.72 238.10-14.52Q238.84-16.32 240.16-17.62Q241.48-18.92 243.26-19.66Q245.04-20.40 247.12-20.40L247.12-20.40Q249.56-20.40 251.34-19.50Q253.12-18.60 254.26-17.28Q255.40-15.96 255.94-14.40Q256.48-12.84 256.48-11.52L256.48-11.52L256.48-8.96ZM247.12-17.44L247.12-17.44Q245.80-17.44 244.66-17.02Q243.52-16.60 242.66-15.84Q241.80-15.08 241.26-14.06Q240.72-13.04 240.56-11.84L240.56-11.84L253.36-11.84Q253.28-13.12 252.74-14.16Q252.20-15.20 251.34-15.92Q250.48-16.64 249.38-17.04Q248.28-17.44 247.12-17.44Z M266.68-3.04L266.68 0L263.56 0L263.56-28L266.68-28L266.68-16.72L267.16-16.72Q268.20-18.52 270.04-19.46Q271.88-20.40 274.04-20.40L274.04-20.40Q275.88-20.40 277.52-19.72Q279.16-19.04 280.42-17.76Q281.68-16.48 282.42-14.60Q283.16-12.72 283.16-10.32L283.16-10.32L283.16-9.52Q283.16-7.08 282.44-5.20Q281.72-3.32 280.46-2.04Q279.20-0.76 277.52-0.10Q275.84 0.56 273.96 0.56L273.96 0.56Q273.00 0.56 272.00 0.34Q271.00 0.12 270.10-0.34Q269.20-0.80 268.44-1.46Q267.68-2.12 267.16-3.04L267.16-3.04L266.68-3.04ZM273.32-2.40L273.32-2.40Q274.76-2.40 275.96-2.90Q277.16-3.40 278.06-4.32Q278.96-5.24 279.46-6.56Q279.96-7.88 279.96-9.52L279.96-9.52L279.96-10.32Q279.96-11.92 279.46-13.22Q278.96-14.52 278.06-15.46Q277.16-16.40 275.94-16.92Q274.72-17.44 273.32-17.44L273.32-17.44Q271.92-17.44 270.72-16.90Q269.52-16.36 268.62-15.40Q267.72-14.44 267.20-13.10Q266.68-11.76 266.68-10.16L266.68-10.16L266.68-9.68Q266.68-8.04 267.20-6.70Q267.72-5.36 268.62-4.40Q269.52-3.44 270.72-2.92Q271.92-2.40 273.32-2.40Z M294.48-14.72L294.48-14.72Q294.48-13.28 295.70-12.52Q296.92-11.76 300.16-11.52L300.16-11.52Q303.64-11.24 305.46-9.86Q307.28-8.48 307.28-5.84L307.28-5.84L307.28-5.60Q307.28-4.16 306.70-3.02Q306.12-1.88 305.10-1.08Q304.08-0.28 302.62 0.14Q301.16 0.56 299.44 0.56L299.44 0.56Q297.12 0.56 295.46-0.06Q293.80-0.68 292.70-1.70Q291.60-2.72 291.04-4.02Q290.48-5.32 290.40-6.64L290.40-6.64L293.36-7.36Q293.56-5.08 295.12-3.70Q296.68-2.32 299.28-2.32L299.28-2.32Q301.48-2.32 302.82-3.18Q304.16-4.04 304.16-5.60L304.16-5.60Q304.16-7.28 302.84-8Q301.52-8.72 298.56-8.92L298.56-8.92Q295.12-9.16 293.28-10.52Q291.44-11.88 291.44-14.48L291.44-14.48L291.44-14.72Q291.44-16.12 292.04-17.18Q292.64-18.24 293.66-18.96Q294.68-19.68 295.96-20.04Q297.24-20.40 298.64-20.40L298.64-20.40Q300.60-20.40 302.08-19.86Q303.56-19.32 304.56-18.46Q305.56-17.60 306.10-16.48Q306.64-15.36 306.80-14.24L306.80-14.24L303.84-13.52Q303.64-15.44 302.30-16.52Q300.96-17.60 298.80-17.60L298.80-17.60Q297.96-17.60 297.18-17.42Q296.40-17.24 295.80-16.88Q295.20-16.52 294.84-15.98Q294.48-15.44 294.48-14.72Z M322.60-25.76L322.60-25.76Q322.60-26.92 323.42-27.74Q324.24-28.56 325.40-28.56L325.40-28.56Q326.56-28.56 327.38-27.74Q328.20-26.92 328.20-25.76L328.20-25.76Q328.20-24.60 327.38-23.78Q326.56-22.96 325.40-22.96L325.40-22.96Q324.24-22.96 323.42-23.78Q322.60-24.60 322.60-25.76ZM316.92 0L316.92-2.88L323.88-2.88L323.88-16.96L317.64-16.96L317.64-19.84L327.00-19.84L327.00-2.88L333.48-2.88L333.48 0L316.92 0Z M341.84-16.96L341.84-19.84L348.08-19.84L348.08-28L351.20-28L351.20-19.84L358.88-19.84L358.88-16.96L351.20-16.96L351.20-4.08Q351.20-2.88 352.28-2.88L352.28-2.88L357.92-2.88L357.92 0L351.16 0Q349.80 0 348.94-0.88Q348.08-1.76 348.08-3.12L348.08-3.12L348.08-16.96L341.84-16.96Z M386.88-8.96L370.88-8.96Q371.00-6 372.72-4.20Q374.44-2.40 377.52-2.40L377.52-2.40Q378.92-2.40 379.96-2.72Q381.00-3.04 381.74-3.60Q382.48-4.16 382.94-4.90Q383.40-5.64 383.68-6.48L383.68-6.48L386.64-5.68Q385.80-2.92 383.54-1.18Q381.28 0.56 377.44 0.56L377.44 0.56Q375.32 0.56 373.54-0.18Q371.76-0.92 370.48-2.28Q369.20-3.64 368.48-5.52Q367.76-7.40 367.76-9.68L367.76-9.68L367.76-10.64Q367.76-12.72 368.50-14.52Q369.24-16.32 370.56-17.62Q371.88-18.92 373.66-19.66Q375.44-20.40 377.52-20.40L377.52-20.40Q379.96-20.40 381.74-19.50Q383.52-18.60 384.66-17.28Q385.80-15.96 386.34-14.40Q386.88-12.84 386.88-11.52L386.88-11.52L386.88-8.96ZM377.52-17.44L377.52-17.44Q376.20-17.44 375.06-17.02Q373.92-16.60 373.06-15.84Q372.20-15.08 371.66-14.06Q371.12-13.04 370.96-11.84L370.96-11.84L383.76-11.84Q383.68-13.12 383.14-14.16Q382.60-15.20 381.74-15.92Q380.88-16.64 379.78-17.04Q378.68-17.44 377.52-17.44Z"/></g>
</svg>
</g><g opacity="1" transform="rotate(0 363.1913 309.8795)">
<svg width="361.3542" height="28" x="363.1913" y="309.8795" version="1.1" preserveAspectRatio="none" viewBox="1.8 -28.6 371.67999999999995 28.8">
  <g transform="matrix(1 0 0 1 0 0)" class="companyName"><path id="id-D6z1nYkh13" d="M8.28-14.12L1.80-14.12L1.80-28.60L37-28.60L37-14.12L30.52-14.12L30.52-23.40L21.80-23.40L21.80 0L15.40 0L15.40-23.40L8.28-23.40L8.28-14.12Z M67.64 0L46.48 0Q43.24 0 41.52-1.64Q39.80-3.28 39.80-6.32L39.80-6.32Q39.80-9.32 41.52-10.96Q43.24-12.60 46.48-12.60L46.48-12.60L61.84-12.60L61.84-13.56Q61.84-16 59.44-16L59.44-16L42.48-16L42.48-20.60L60.96-20.60Q64.60-20.60 66.12-18.94Q67.64-17.28 67.64-14.28L67.64-14.28L67.64 0ZM47.52-4.60L47.52-4.60L61.84-4.60L61.84-8L47.52-8Q46.76-8 46.34-7.54Q45.92-7.08 45.92-6.32L45.92-6.32Q45.92-5.56 46.34-5.08Q46.76-4.60 47.52-4.60Z M77.84 0L72.04 0L72.04-28.60L77.84-28.60L77.84-20.60L91.68-20.60Q95.20-20.60 97.06-18.94Q98.92-17.28 98.92-14.20L98.92-14.20Q98.92-9.16 94.12-8.20L94.12-8.20L99 0L92.48 0L87.76-7.96L77.84-7.96L77.84 0ZM91.40-16.04L91.40-16.04L77.84-16.04L77.84-12.52L91.40-12.52Q92.20-12.52 92.66-13Q93.12-13.48 93.12-14.32L93.12-14.32Q93.12-16.04 91.40-16.04Z M129.24 0L108.08 0Q104.84 0 103.12-1.64Q101.40-3.28 101.40-6.32L101.40-6.32Q101.40-9.32 103.12-10.96Q104.84-12.60 108.08-12.60L108.08-12.60L123.44-12.60L123.44-13.56Q123.44-16 121.04-16L121.04-16L104.08-16L104.08-20.60L122.56-20.60Q126.20-20.60 127.72-18.94Q129.24-17.28 129.24-14.28L129.24-14.28L129.24 0ZM109.12-4.60L109.12-4.60L123.44-4.60L123.44-8L109.12-8Q108.36-8 107.94-7.54Q107.52-7.08 107.52-6.32L107.52-6.32Q107.52-5.56 107.94-5.08Q108.36-4.60 109.12-4.60Z M151.60 0.20L144.20 0.20Q138.84 0.20 135.84-2.46Q132.84-5.12 132.84-10.28L132.84-10.28Q132.84-15.48 135.84-18.14Q138.84-20.80 144.20-20.80L144.20-20.80L151.60-20.80Q156.96-20.80 159.96-18.14Q162.96-15.48 162.96-10.28L162.96-10.28Q162.96-5.12 159.96-2.46Q156.96 0.20 151.60 0.20L151.60 0.20ZM144.20-4.40L144.20-4.40L151.60-4.40Q154.20-4.40 155.58-5.84Q156.96-7.28 156.96-10.28L156.96-10.28Q156.96-13.32 155.58-14.76Q154.20-16.20 151.60-16.20L151.60-16.20L144.20-16.20Q141.60-16.20 140.22-14.76Q138.84-13.32 138.84-10.28L138.84-10.28Q138.84-7.28 140.22-5.84Q141.60-4.40 144.20-4.40Z M187.56 0L181.16 0L181.16-28.60L186.52-28.60L199.76-19.32L199.96-19.32L213.20-28.60L218.56-28.60L218.56 0L212.16 0L212.16-20.60L203.08-14.52L203.08 0L196.68 0L196.68-14.52L187.56-20.60L187.56 0Z M241.52 0.20L234.12 0.20Q228.76 0.20 225.76-2.46Q222.76-5.12 222.76-10.28L222.76-10.28Q222.76-15.48 225.76-18.14Q228.76-20.80 234.12-20.80L234.12-20.80L241.52-20.80Q246.88-20.80 249.88-18.14Q252.88-15.48 252.88-10.28L252.88-10.28Q252.88-5.12 249.88-2.46Q246.88 0.20 241.52 0.20L241.52 0.20ZM234.12-4.40L234.12-4.40L241.52-4.40Q244.12-4.40 245.50-5.84Q246.88-7.28 246.88-10.28L246.88-10.28Q246.88-13.32 245.50-14.76Q244.12-16.20 241.52-16.20L241.52-16.20L234.12-16.20Q231.52-16.20 230.14-14.76Q228.76-13.32 228.76-10.28L228.76-10.28Q228.76-7.28 230.14-5.84Q231.52-4.40 234.12-4.40Z M262.28 0L256.48 0L256.48-20.60L274.44-20.60Q277.96-20.60 279.58-18.86Q281.20-17.12 281.20-14.28L281.20-14.28L281.20 0L275.40 0L275.40-13.60Q275.40-16 273-16L273-16L262.28-16L262.28 0Z M291.20 0L285.40 0L285.40-20.60L291.20-20.60L291.20 0ZM291.24-24L285.36-24L285.36-28.52L291.24-28.52L291.24-24Z M315.04 0L306.32 0Q302.84 0 301.20-1.74Q299.56-3.48 299.56-6.32L299.56-6.32L299.56-16L293.60-16L293.60-20.60L299.56-20.60L299.56-26.92L305.36-26.92L305.36-20.60L313.92-20.60L313.92-16L305.36-16L305.36-7.04Q305.36-4.60 307.76-4.60L307.76-4.60L315.04-4.60L315.04 0Z M336.00 0.20L328.60 0.20Q323.24 0.20 320.24-2.46Q317.24-5.12 317.24-10.28L317.24-10.28Q317.24-15.48 320.24-18.14Q323.24-20.80 328.60-20.80L328.60-20.80L336.00-20.80Q341.36-20.80 344.36-18.14Q347.36-15.48 347.36-10.28L347.36-10.28Q347.36-5.12 344.36-2.46Q341.36 0.20 336.00 0.20L336.00 0.20ZM328.60-4.40L328.60-4.40L336.00-4.40Q338.60-4.40 339.98-5.84Q341.36-7.28 341.36-10.28L341.36-10.28Q341.36-13.32 339.98-14.76Q338.60-16.20 336.00-16.20L336.00-16.20L328.60-16.20Q326.00-16.20 324.62-14.76Q323.24-13.32 323.24-10.28L323.24-10.28Q323.24-7.28 324.62-5.84Q326.00-4.40 328.60-4.40Z M356.84 0L350.96 0L350.96-20.60L366.72-20.60Q370.20-20.60 371.84-18.86Q373.48-17.12 373.48-14.28L373.48-14.28L373.48-10L367.60-10L367.60-13.56Q367.60-15.96 365.20-15.96L365.20-15.96L356.84-15.96L356.84 0Z"/></g>
</svg>
</g><g opacity="1" transform="rotate(0 363.1913 347.8795)">
<svg width="79.4979" height="6" x="363.1913" y="347.8795" version="1.1" preserveAspectRatio="none" viewBox="0 0 79.4979 6">
  <defs><rect x="0" y="0" width="79.4979" height="6" rx="0px" ry="0px" id="id-o0jQam8yd1689329831963"/></defs><use class="icon3 shapeStroke-str" style="stroke-width:0;" xlink:href="#id-o0jQam8yd1689329831963"/>
</svg>
</g></svg></svg>
